<?xml version="1.0" standalone="no"?>
<!DOCTYPE svg PUBLIC "-//W3C//DTD SVG 20010904//EN"
 "http://www.w3.org/TR/2001/REC-SVG-20010904/DTD/svg10.dtd">
<svg version="1.0" xmlns="http://www.w3.org/2000/svg"
 width="300.000000pt" height="300.000000pt" viewBox="0 0 300.000000 300.000000"
 preserveAspectRatio="xMidYMid meet">
<metadata>
Created by potrace 1.10, written by Peter Selinger 2001-2011
</metadata>
<g transform="translate(0.000000,300.000000) scale(0.100000,-0.100000)"
fill="#000000" stroke="none">
<path d="M1452 2414 c-29 -14 -68 -44 -87 -67 -36 -42 -45 -41 -20 3 8 14 14
31 15 38 1 39 -211 -46 -315 -125 -27 -21 -69 -67 -93 -101 -30 -42 -52 -64
-70 -68 -15 -3 -37 -7 -50 -10 -26 -5 -126 -151 -150 -218 -8 -23 -17 -90 -19
-151 l-6 -110 42 -97 c43 -101 48 -140 31 -215 -14 -59 9 -157 59 -263 32 -66
44 -105 52 -174 6 -49 14 -99 19 -110 6 -19 9 -17 27 19 31 61 36 112 18 196
-32 148 -34 133 28 192 76 71 80 83 62 153 -17 66 -20 200 -5 239 13 33 71 59
171 76 71 12 83 11 203 -16 l127 -27 97 38 c88 35 106 38 192 39 87 0 100 -3
160 -32 36 -18 77 -47 92 -66 39 -50 68 -170 57 -238 -11 -68 2 -109 41 -133
58 -34 64 -55 72 -235 4 -92 11 -179 17 -196 9 -29 9 -28 10 16 1 67 29 216
46 250 44 84 64 344 33 424 -15 38 -15 42 8 85 33 63 31 97 -9 140 -19 20 -44
63 -57 100 -33 92 -42 103 -125 144 -109 54 -177 120 -211 206 -33 84 -28 114
21 137 20 9 34 22 32 27 -7 22 -102 66 -143 66 -33 0 -45 5 -58 25 -21 32 -42
32 -92 -1 -46 -30 -77 -71 -105 -140 l-20 -49 6 74 c3 41 14 94 25 119 16 36
18 47 8 54 -25 15 -85 8 -136 -18z m-108 -459 c40 -52 82 -77 195 -115 107
-36 130 -53 147 -110 7 -24 6 -24 -29 7 -37 32 -90 53 -137 53 -41 0 -124 45
-157 84 -45 55 -83 136 -83 176 l1 35 19 -48 c10 -27 30 -63 44 -82z m413 34
c15 -38 24 -45 107 -84 97 -45 140 -80 162 -132 24 -56 16 -69 -15 -26 -16 23
-40 48 -53 57 -22 16 -23 16 -28 -11 l-5 -27 -17 26 c-9 14 -41 39 -70 56 -77
43 -100 72 -106 132 -2 27 -2 50 2 50 3 0 14 -18 23 -41z m-804 -118 c52 -78
125 -106 345 -132 90 -10 171 -23 180 -29 12 -6 -4 -7 -48 -3 -73 8 -70 8
-240 -2 l-125 -7 -55 29 c-44 23 -60 39 -82 82 -29 54 -37 125 -21 181 6 20 9
15 14 -28 4 -30 18 -69 32 -91z"/>
</g>
</svg>
