<?xml version="1.0" standalone="no"?>
<!DOCTYPE svg PUBLIC "-//W3C//DTD SVG 20010904//EN"
 "http://www.w3.org/TR/2001/REC-SVG-20010904/DTD/svg10.dtd">
<svg version="1.0" xmlns="http://www.w3.org/2000/svg"
 width="300.000000pt" height="300.000000pt" viewBox="0 0 300.000000 300.000000"
 preserveAspectRatio="xMidYMid meet">
<metadata>
Created by potrace 1.10, written by Peter Selinger 2001-2011
</metadata>
<g transform="translate(0.000000,300.000000) scale(0.100000,-0.100000)"
fill="#000000" stroke="none">
<path d="M1059 2511 c-33 -33 -74 -91 -96 -132 -35 -69 -38 -80 -38 -162 l0
-89 -21 49 -22 48 -13 -45 c-14 -50 -19 -286 -7 -385 l7 -60 -19 40 c-10 22
-27 69 -36 105 -9 36 -21 69 -25 74 -14 16 -21 -119 -10 -197 21 -152 71 -215
205 -260 41 -14 166 -24 166 -14 0 2 -25 28 -54 59 -30 31 -68 83 -84 115 -52
102 -46 111 13 18 94 -150 134 -180 269 -204 33 -6 69 -11 79 -11 19 0 19 1 4
18 -23 26 -36 64 -53 166 -16 96 -48 177 -108 270 -20 31 -34 56 -32 56 3 0
36 -41 75 -90 78 -101 94 -141 115 -283 16 -113 34 -140 100 -158 50 -14 164
-6 203 14 68 36 93 86 93 190 0 87 -24 135 -114 227 -32 33 -55 60 -52 60 4 0
45 -30 91 -67 84 -68 117 -112 129 -168 8 -36 -17 -137 -44 -181 -11 -17 -20
-34 -20 -38 0 -3 24 6 53 20 34 18 78 30 128 35 91 9 137 31 202 95 26 26 47
43 47 38 0 -16 -62 -85 -102 -114 l-39 -29 64 -51 c35 -28 71 -66 80 -85 20
-42 43 -157 52 -258 4 -43 9 -76 11 -75 1 2 10 57 19 123 14 100 15 142 6 264
-6 80 -18 181 -26 224 -13 69 -13 81 0 107 8 16 15 49 15 74 0 38 -6 53 -33
83 -19 21 -42 52 -52 70 -17 29 -51 53 -77 53 -5 0 -23 11 -39 24 -38 32 -130
66 -178 66 -30 0 -49 8 -80 34 -35 29 -51 35 -108 41 -117 11 -142 16 -175 39
-46 30 -68 79 -68 151 l-1 60 -18 -34 -19 -35 -6 50 c-4 27 -13 60 -20 73 -12
22 -14 20 -18 -39 -3 -39 -10 -67 -19 -74 -9 -6 -24 -26 -34 -43 -25 -42 -37
-41 -61 5 l-19 37 -3 -53 c-3 -59 -17 -72 -58 -53 -40 18 -68 92 -60 160 7 60
5 60 -31 4 l-24 -38 5 38 c3 22 17 54 31 73 40 53 17 40 -46 -25z"/>
<path d="M823 1334 c4 -144 22 -293 33 -281 2 2 22 84 44 183 23 98 43 186 46
195 4 15 -9 23 -115 66 -11 5 -13 -22 -8 -163z"/>
</g>
</svg>
