<?xml version="1.0" standalone="no"?>
<!DOCTYPE svg PUBLIC "-//W3C//DTD SVG 20010904//EN"
 "http://www.w3.org/TR/2001/REC-SVG-20010904/DTD/svg10.dtd">
<svg version="1.0" xmlns="http://www.w3.org/2000/svg"
 width="300.000000pt" height="300.000000pt" viewBox="0 0 300.000000 300.000000"
 preserveAspectRatio="xMidYMid meet">
<metadata>
Created by potrace 1.10, written by Peter Selinger 2001-2011
</metadata>
<g transform="translate(0.000000,300.000000) scale(0.100000,-0.100000)"
fill="#000000" stroke="none">
<path d="M1420 2280 c-14 -4 -60 -8 -102 -9 -62 -1 -78 -4 -78 -16 0 -12 -14
-15 -70 -15 -71 0 -83 -7 -55 -30 24 -20 9 -26 -93 -40 -80 -11 -96 -17 -109
-37 -9 -13 -36 -36 -61 -50 -44 -26 -45 -27 -24 -41 24 -15 29 -32 11 -32 -6
0 -35 -7 -64 -16 -52 -14 -54 -16 -45 -40 17 -43 12 -54 -21 -54 -27 0 -30 -2
-19 -15 20 -24 -6 -65 -40 -65 -38 0 -41 -7 -19 -57 23 -55 23 -53 0 -53 -25
0 -18 -27 20 -73 20 -24 46 -41 82 -52 28 -10 86 -35 127 -56 101 -52 211 -82
419 -115 l175 -27 165 16 c92 10 194 17 228 17 57 0 68 4 137 47 l74 47 53
132 c51 130 52 134 52 241 1 149 0 151 -205 327 -73 62 -77 65 -72 38 l6 -29
-69 13 c-70 13 -268 41 -338 48 -22 2 -51 1 -65 -4z"/>
<path d="M2187 1763 c-3 -4 -17 -53 -32 -108 -21 -77 -36 -112 -67 -153 -46
-59 -48 -50 32 -137 84 -91 83 -86 109 -395 6 -67 9 -79 15 -55 4 17 21 84 38
150 44 167 50 345 18 537 -12 73 -24 136 -26 139 -2 4 -14 9 -26 12 -13 2 -30
8 -39 11 -10 4 -19 4 -22 -1z"/>
<path d="M724 1539 c-18 -29 22 -319 58 -422 12 -34 26 -89 33 -122 l12 -60 7
41 c4 22 3 85 -3 140 -12 120 -4 162 49 261 28 53 35 74 27 81 -35 28 -177 91
-183 81z"/>
</g>
</svg>
