<?xml version="1.0" standalone="no"?>
<!DOCTYPE svg PUBLIC "-//W3C//DTD SVG 20010904//EN"
 "http://www.w3.org/TR/2001/REC-SVG-20010904/DTD/svg10.dtd">
<svg version="1.0" xmlns="http://www.w3.org/2000/svg"
 width="300.000000pt" height="300.000000pt" viewBox="0 0 300.000000 300.000000"
 preserveAspectRatio="xMidYMid meet">
<metadata>
Created by potrace 1.10, written by Peter Selinger 2001-2011
</metadata>
<g transform="translate(0.000000,300.000000) scale(0.100000,-0.100000)"
fill="#000000" stroke="none">
<path d="M1365 2361 c-85 -21 -159 -83 -197 -166 -20 -45 -23 -65 -23 -189 l0
-138 -22 48 c-47 104 -46 232 1 327 14 28 24 53 22 54 -2 2 -36 -13 -77 -34
-91 -46 -195 -147 -258 -254 -60 -100 -67 -144 -37 -236 6 -18 4 -20 -13 -16
-26 7 -92 -77 -122 -154 -31 -80 -38 -258 -14 -375 18 -92 74 -268 103 -324
l18 -36 14 124 c7 67 14 204 14 303 1 164 4 185 25 238 72 182 253 240 671
218 41 -2 118 0 170 4 159 13 321 -31 410 -111 76 -69 113 -213 104 -404 -2
-52 1 -151 9 -220 l13 -125 21 40 c34 66 71 186 89 286 18 105 15 215 -11 363
-18 102 -25 117 -91 206 -43 59 -47 69 -48 125 -1 35 -9 77 -20 100 l-19 40
-7 -35 c-7 -40 -34 -95 -52 -106 -8 -5 -9 -2 -3 12 23 54 29 115 16 177 -23
113 -61 152 -177 181 -36 9 -85 26 -107 38 -52 26 -112 20 -167 -16 -70 -46
-108 -115 -136 -241 -6 -27 -7 -28 -14 -10 -5 11 -9 49 -9 85 -1 77 20 129 74
189 l37 41 -78 -1 c-44 -1 -92 -4 -109 -8z"/>
</g>
</svg>
