<?xml version="1.0" standalone="no"?>
<!DOCTYPE svg PUBLIC "-//W3C//DTD SVG 20010904//EN"
 "http://www.w3.org/TR/2001/REC-SVG-20010904/DTD/svg10.dtd">
<svg version="1.0" xmlns="http://www.w3.org/2000/svg"
 width="300.000000pt" height="300.000000pt" viewBox="0 0 300.000000 300.000000"
 preserveAspectRatio="xMidYMid meet">
<metadata>
Created by potrace 1.10, written by Peter Selinger 2001-2011
</metadata>
<g transform="translate(0.000000,300.000000) scale(0.100000,-0.100000)"
fill="#000000" stroke="none">
<path d="M1351 2338 c-36 -5 -110 -26 -165 -48 -56 -21 -123 -46 -151 -55 -39
-14 -70 -37 -141 -109 l-90 -91 -43 -129 c-24 -72 -48 -168 -54 -217 -11 -87
-10 -90 21 -183 21 -60 32 -113 31 -143 0 -26 6 -68 15 -92 9 -24 19 -76 22
-115 6 -82 32 -204 45 -212 5 -3 9 62 9 151 l0 155 26 12 c25 11 25 13 17 77
-14 113 -9 223 11 253 37 57 131 73 250 42 75 -20 334 -16 378 6 23 11 41 10
116 -5 88 -17 90 -17 166 5 42 11 98 21 125 22 l48 0 7 51 c3 29 6 97 7 152 0
100 0 100 15 60 22 -61 28 -171 11 -232 -15 -56 -13 -63 14 -63 27 0 51 74 57
180 4 67 8 86 13 65 14 -62 9 -155 -11 -212 -19 -55 -16 -72 12 -73 26 0 61
-198 57 -319 -2 -57 0 -65 19 -72 31 -12 39 -35 44 -135 8 -132 20 -138 39
-19 9 55 37 181 62 281 51 196 55 244 31 362 -12 61 -31 104 -91 211 -129 228
-246 334 -450 408 -100 36 -331 52 -472 31z"/>
</g>
</svg>
